# xmcd
#
# Track frame offsets:
#	151
#	16020
#	34785
#	54402
#	77693
#	100822
#	125919
#	145464
#	167483
#	186808
#	210027
#	230182
#	255445
#
# Disc length: 3603
#
# Revision: 2
# Processed by: cddbd v1.5.1PL0 Copyright (c) Steve Scherf et al.
# Submitted via: ExactAudioCopy v0.95a5
# Normalized: r1:TRMNUM
#
DISCID=a50e110d
DTITLE=黄品源 - 十载浓情精选_disk1
DYEAR=2002
DGENRE=
TTITLE0=那么爱你为什么
TTITLE1=纵然有一天我们分离
TTITLE2=我该用什么样的心来对你
TTITLE3=别忘记联络
TTITLE4=当我再次接到电话的时候
TTITLE5=你的眼泪
TTITLE6=谁能让时间倒转
TTITLE7=停留在我心中的灵魂
TTITLE8=兄弟情
TTITLE9=晚安 我的爱
TTITLE10=睡了没
TTITLE11=大海的烦恼
TTITLE12=爱你到永远
EXTD=
EXTT0=
EXTT1=
EXTT2=
EXTT3=
EXTT4=
EXTT5=
EXTT6=
EXTT7=
EXTT8=
EXTT9=
EXTT10=
EXTT11=
EXTT12=
PLAYORDER=
